<svg xmlns="http://www.w3.org/2000/svg" id="Layer_2" data-name="Layer 2" viewBox="0 0 123.29 135.86"><defs><style>.cls-1{fill:#fefffe}.cls-1,.cls-10,.cls-12,.cls-13,.cls-15,.cls-16,.cls-17,.cls-20,.cls-21,.cls-22,.cls-23,.cls-24,.cls-25,.cls-27,.cls-5,.cls-6,.cls-7,.cls-8{stroke-width:0}.cls-5{fill:#193a29}.cls-6{fill:#254b30}.cls-7{fill:#62351e}.cls-8{fill:#6a7b38}.cls-10{fill:#556330}.cls-12{fill:#c1ca6f}.cls-13{fill:#d8e5c4}.cls-15{fill:#3a452c}.cls-16{fill:#efebe0}.cls-17{fill:#423f20}.cls-20{fill:#299163}.cls-21{fill:#e9e8bd}.cls-22{fill:#4a542c}.cls-23{fill:#03979d}.cls-24{fill:#cccbb7}.cls-25{fill:#5b2519}.cls-27{fill:#69893c}</style></defs><g id="Layer_1-2" data-name="Layer 1"><path d="m108.51 111.93-2.99.65-2.18-3.39c.49-.34 1.4-3.13 4.28-2.26 1.72 1.55.57 3.59.57 3.8 0 .11.62.22.32 1.21Z" class="cls-6"/><path d="M105.84 107.24c.83-.14 2.1.1 2.34 1.05.55 2.18-.53-.61-1.54-.73-1.17-.14-3.75 2.42-.81-.32Z" style="stroke-width:0;fill:#aed3aa"/><path d="M68.91 52.62c.12-1.4.11-2.82.32-4.2.1-.65.46-1.52.48-1.78 2.07 2.53-.51 5.43-.81 5.98Z" class="cls-20"/><path d="M59.7 26.59c.29.73 1.33 1.09 1.29 1.21-.11.33-4.92 1.04-2.91 5.09-15.65 6.27-14.7 22.44-.81 29.9-.11.53-.13 1.09-.32 1.62-.33-.05-3-.05-3.15 0-.14.05-.06.31-.08.32-13.07-.56-26.23-16.87-14.63-26.83 2.03-1.74 6.7-4.13 8.73-5.82 4.09-3.4 4.17-6.57 11.88-5.5ZM69.4 64.74c-1.19-.32-1.64-.38-2.91-.32.09-.43-.25-1.45-.32-2.26 14.58-6.52 14.09-22.36-.48-29.09.87-1.04.78-3.95-.89-5.17-.14-.1-1.1-.08-1.21-.4-.03-.1.31-.88.32-1.05 7.06-.61 7.86 2.63 12.53 5.98 1.72 1.23 4.48 2.57 5.98 3.72 14.51 11.11 1.2 27.65-13.01 28.61Z" class="cls-12"/><path d="M105.76 54.55c.07 3.42.68 6.84.65 10.26.56-.68.66-2.11.81-2.99.37 1.21.46 1.41 1.29.48-.51 2.41-2.16 8.37-.81 6.3l.16.48c-3.03 2.98-1.54 2.42-2.59 5.58-3.18 9.59-9.8 17.72-17.46 24.16-.46-.86-.43-1.17-.48-1.29 9.56-9.27 17.84-21.84 17.29-35.64-.04-.95-.41-4.62-.65-5.41.19-.67 1.09-1.72 1.78-1.94ZM17.68 53.91c-.32.99.78 1.57.97 2.91.31 2.15-.3 8.1.16 11.88 1.18 9.69 9.83 22.36 17.29 28.69-.34.9-.58 1.15-.65 1.29-7.57-6.54-13.7-13.39-17.29-22.87-.39-1.03-.77-3.84-1.13-4.53-.04-.08-.78-.73-1.29-1.37-.06-.46.3-.14.32-.65.02-.47-.36-2.24-.48-2.91l.08-1.45c.79-.26.18 1.15.89.65.5-.63.59-10.33.65-11.96.4-.07.46.31.48.32" class="cls-25"/><path d="M13.47 62.96c.16.31 1.02 2.8.57 2.91-1.79-.42-5.08-1.75-5.74-1.29-2.01-1.62-3.75-4.59-3.56-7.19.67-1.68 6.81 1.8 8.73 5.58ZM106.09 49.22c-1.88-1.7-1.17-2.31-1.45-2.83-.45-.82-4.06-6-5.01-5.41-.49-.68-1.3-1.38-1.94-1.94-1.02-.88-3.01-2.81-4.04-1.29-.3-.92-.49-1.83-.81-2.75.61-.54.2-.93.16-1.13.88-5.25-.97-17.17 6.63-8.81 6.08 6.7 6.25 15.6 6.47 24.16Z" class="cls-8"/><path d="M97.68 39.04c-.32.46.66 1.04 1.29 2.02 1.5 2.32 2.93 6.14 3.39 8.89-3.62 0-4.12-4.41-5.66-3.64-2.48-4.51-2.31-6.26-3.07-8.57 1.03-1.51 3.02.41 4.04 1.29Z" class="cls-10"/><path d="M99.62 40.98c2.06 2.82 5.12 12.45 5.66 13.01.22.22.29-.04.48-.08v.65c-.69.22-1.59 1.27-1.78 1.94-.18-.62-1.32-2.31-1.78-2.91-.76-1-1.82-1.84-2.59-2.91-1-1.4-2.08-2.86-2.91-4.36 1.54-.78 2.04 3.63 5.66 3.64-.46-2.75-1.89-6.57-3.39-8.89-.63-.98-1.61-1.56-1.29-2.02.64.55 1.45 1.26 1.94 1.94Z" class="cls-15"/><path d="M106.09 49.22c.03 1.26-.35 3.39-.32 4.69-.19.04-.27.31-.48.08-.54-.56-3.6-10.19-5.66-13.01.95-.59 4.56 4.59 5.01 5.41.29.52-.43 1.13 1.45 2.83" class="cls-10"/><path d="M72.47 12.05c.11.33.2.64.32.97.51 1.32 1.38 2.51 1.78 3.88-.82-.43-6.87-1.5-10.02-4.77-5.75-5.95 1.28-6.8 7.92-.08" class="cls-8"/><path d="M89.12 24.33c-.05.34-.14.63-.16.97-.2-.03-.47.04-.57 0-.49-.22-4.72-5.02-7.76-7.43-.76-.6-6.87-4.84-7.27-5.01-.28-.12-.46-.21-.57.16-.13-.33-.21-.64-.32-.97-.45-1.35-1.03-3.11-1.13-4.53 7.54-1.21 14.38 5.7 16.65 12.36.48 1.41.58 3.04 1.13 4.44Z" class="cls-10"/><path d="M89.12 24.33c-.55-1.4-.65-3.03-1.13-4.44-2.27-6.66-9.1-13.57-16.65-12.36-.31-4.4 1.5-5.24 5.58-4.69 9.62 1.31 13.49 11.35 12.69 19.96-.03.37-.47 1.45-.48 1.54Z" class="cls-8"/><path d="M88.95 25.3c-.02.24-.21.04 0 .65-.59.01-.63.6-.81 1.13-1.26-1.28-3.93-3.15-5.66-3.56-1.24-1.88-4.53-3.98-6.63-5.33-.51-.33-.75-1.01-1.29-1.29-.4-1.37-1.27-2.56-1.78-3.88.1-.37.29-.28.57-.16.41.17 6.52 4.41 7.27 5.01 3.03 2.42 7.27 7.22 7.76 7.43.09.04.36-.03.57 0" class="cls-15"/><path d="M75.86 18.19c2.09 1.35 5.39 3.46 6.63 5.33-1.43-.33-3.94-.22-5.66-.48l-2.91-5.01c.54.03 1.34.36 1.94.16" class="cls-10"/><path d="m73.92 18.03 2.91 5.01c-3.17-.48-5.91-1.46-7.27-4.61.22-.55 3.68-.44 4.36-.4M52.1 4.29c-.1.94.61 2.39-.4 3.07C50.19 8.37 37.22 8.63 34 24.17c-.44-5.91.13-12.6 4.36-17.21 3.3-3.6 11.96-6.11 13.74-2.67" class="cls-8"/><path d="M50.16 12.37c-.64.79-12.29 8.47-15.6 13.09l-.24-.16c0-.1-.31-.97-.32-1.13C37.21 8.63 50.18 8.37 51.7 7.36c1.02-.68.31-2.13.4-3.07 1.19 1.53-.94 6.84-1.94 8.08" class="cls-10"/><path d="M50.49 12.37c-.12.23-1.09 3.84-1.78 4.85-.27.15-.67.53-1.13.81-1.98 1.19-5.82 4.12-7.43 5.82-1.97.43-3.38 1.42-4.85 2.75l-1.13-.65c.12-.28.14-.29.16-.65l.24.16c3.31-4.63 14.95-12.3 15.6-13.09z" class="cls-15"/><path d="M48.71 17.22c.68-1.01 1.66-4.62 1.78-4.85.39-.74 8.13-7.05 9.54-4.28-1.64 6.19-7.9 7.31-11.31 9.13Z" class="cls-8"/><path d="M49.03 18.03c-.1 1.91-1.19 3.49-1.94 5.17-2.29.43-4.65.14-6.95.65 1.61-1.7 5.45-4.63 7.43-5.82.32.41 1.07.05 1.45 0Z" class="cls-22"/><path d="M47.09 23.2c.75-1.68 1.84-3.26 1.94-5.17 9.66-1.18 2.35 4.37-1.94 5.17M114.98 64.41c.71-2.01-2.82-.22-4.69.48-.5.19-1.24.49-1.45.32 1.16-2.88 1.91-4.65 4.77-6.47 7.3-4.64 5.04 2.83 1.37 5.66Z" class="cls-8"/><path d="M110.29 64.9c.05.85 1.33.61 1.13 1.45-1.2.81-2.52 1.73-3.56 2.75l-.16-.48c.28-.43.62-2.13 1.13-3.39.21.17.95-.13 1.45-.32Z" class="cls-10"/><path d="M114.98 64.41c-1.69 1.3-3.18 1.69-3.56 1.94.2-.84-1.08-.6-1.13-1.45 1.87-.7 5.39-2.5 4.69-.48Z" class="cls-10"/><path d="M117.4 51.81c-1.7 1.15-1.38-1.89-1.29-2.99 0-.11-.34-.05-.32-.16.02-.15.46 0 .48-.16.16-1.12.54-2.01.08-2.34-3.55 1.24-6.35 3.99-7.92 7.43-1.33.02-.37-1.49-.89-2.26.77-10.41 10.67-14.18 11.96-9.46.91 3.33-.45 7.1-2.1 9.94" class="cls-8"/><path d="M117.4 51.81c-1.25 2.15-1.59 2.21-3.07 3.88-2-.71-2.34 2.83-3.07.73.15-.89 4.8-7.62 3.64-7.52-2.47 3.45-4.99 6.84-6.87 10.67-.16.01-.22.24-.48.16.18-2.67-.2-5.75 0-8.4.52.78-.44 2.28.89 2.26 1.57-3.44 4.37-6.2 7.92-7.43.46.33.08 1.22-.08 2.34-.02.15-.46 0-.48.16-.01.11.33.05.32.16-.08 1.1-.41 4.14 1.29 2.99Z" class="cls-10"/><path d="M114.33 55.69c-1.41 1.6-2.94 2.97-4.36 4.53.27-.51-1.62-.67-1.94-.65 1.88-3.83 4.39-7.22 6.87-10.67 1.17-.1-3.49 6.62-3.64 7.52.73 2.1 1.07-1.44 3.07-.73" class="cls-10"/><path d="M109.97 60.21c-.8.87-1.1 1.7-1.45 2.1-.83.93-.92.72-1.29-.48.13-.77.26-1.1.32-2.1.26.08.32-.15.48-.16.32-.02 2.21.14 1.94.65Z" class="cls-17"/><path d="M27.54 57.79c-.4-1.03-1.34.72-2.26.57l1.78-4.04c.21-1.87-4.99 4.1-5.82 5.33-.69 1.03-.98 2.48-1.29 2.02-.01-1.27-.25-2.5-.16-3.8.09-1.29.57-2.68.81-3.96 1.16-.25 1.8-1.84 2.42-2.75 2-1.46 5.36-4.59 7.76-3.15a12.6 12.6 0 0 1-3.23 9.78Z" class="cls-8"/><path d="M27.54 57.79c-2.47 2.72-6.22 4.2-7.68 7.76-.17-.09.09-2.33.08-3.88.32.46.6-.99 1.29-2.02.83-1.24 6.03-7.21 5.82-5.33l-1.78 4.04c.92.16 1.86-1.59 2.26-.57Z" class="cls-10"/><path d="M30.12 33.38c-.15.68-.56 1.13.16 1.13-1.93 5.23-1.37 6.72-4.69 12.61-1.35-.33-.99-.03-1.62.48-.97.21.62-2.89 1.13-5.09.13-.57.93-4.93.73-5.09-2.65 1.8-5.07 4.77-6.71 7.52-.7 1.17-1.2 2.73-1.94 3.64.38-8.19 1.12-17.47 6.95-23.84 7.02-7.67 5.91 4.33 5.98 8.65Z" class="cls-8"/><path d="M23.98 47.6c-.33.27-5.2 5.6-5.5 6.47-.29-.05-.4.06-.81-.16-.03-.01-.08-.39-.48-.32.06-1.66-.08-3.35 0-5.01.74-.91 1.24-2.46 1.94-3.64 1.63-2.75 4.06-5.71 6.71-7.52.2.16-.59 4.52-.73 5.09-.51 2.2-2.1 5.3-1.13 5.09" class="cls-10"/><path d="M25.6 47.12c-.78 1.39-1.69 2.73-2.59 4.04-.62.91-1.26 2.5-2.42 2.75.3-1.6-.06-.23-.32.32-.57-.21-1.21-.07-1.78-.16.29-.87 5.17-6.19 5.5-6.47.63-.52.27-.81 1.62-.48Z" class="cls-15"/><path d="M18.48 54.07c.56.09 1.21-.05 1.78.16-.43.89-.99 2.35-1.62 2.59-.19-1.34-1.29-1.92-.97-2.91.41.22.52.11.81.16" class="cls-17"/><path d="M92.83 104.82c-1.49-1.52-4.04-4.18-5.01-5.98 7.65-6.44 14.27-14.57 17.46-24.16 1.05-3.16-.44-2.6 2.59-5.58 1.03-1.02 2.35-1.94 3.56-2.75.38-.25 1.87-.64 3.56-1.94 3.67-2.83 5.92-10.29-1.37-5.66-2.86 1.82-3.61 3.59-4.77 6.47-.51 1.26-.85 2.96-1.13 3.39-1.35 2.07.3-3.89.81-6.3.36-.4.66-1.23 1.45-2.1 1.43-1.56 2.95-2.92 4.36-4.53 1.48-1.67 1.82-1.73 3.07-3.88 1.65-2.84 3.01-6.61 2.1-9.94-1.29-4.73-11.19-.96-11.96 9.46-.2 2.66.18 5.73 0 8.4-.07 1-.2 1.33-.32 2.1-.15.88-.25 2.31-.81 2.99.03-3.43-.58-6.85-.65-10.26v-.65c-.03-1.3.35-3.43.32-4.69-.21-8.56-.38-17.46-6.47-24.16-7.59-8.36-5.75 3.56-6.63 8.81-.7-3.86-3.9-7.49-4.04-7.92-.21-.61-.02-.41 0-.65.02-.34.12-.63.16-.97.01-.09.45-1.16.48-1.54.8-8.61-3.06-18.65-12.69-19.96-4.08-.56-5.88.29-5.58 4.69.1 1.42.68 3.17 1.13 4.53-6.64-6.72-13.67-5.87-7.92.08 3.15 3.27 9.2 4.34 10.02 4.77.54.28.79.96 1.29 1.29-.59.2-1.4-.13-1.94-.16-.68-.04-4.15-.14-4.36.4 1.36 3.15 4.1 4.13 7.27 4.61 1.72.26 4.23.15 5.66.48 1.73.4 4.4 2.28 5.66 3.56 1.98 2.01 3.78 5.26 4.69 7.92.32.92.5 1.83.81 2.75.77 2.3.59 4.06 3.07 8.57.83 1.5 1.91 2.97 2.91 4.36-2.29-1.27-4.36-3.57-7.27-2.99.76 3.23 1.19 6.66 3.07 9.46 2.17 3.21 6.71 4.24 8.16 8.08-.7-3.82.04-7.81-1.37-11.48v-.16c.46.6 1.6 2.29 1.78 2.91.23.79.61 4.46.65 5.41.55 13.8-7.73 26.37-17.29 35.64-3.66-8.77-1.26-24.76-8.81-29.25-.47-.28-8.44-3.37-9.13-3.56 14.21-.96 27.52-17.5 13.01-28.61-1.5-1.15-4.26-2.48-5.98-3.72-4.66-3.35-5.46-6.59-12.53-5.98.37-5.16-5.44-2.95-4.2.16-7.71-1.07-7.79 2.1-11.88 5.5-2.03 1.68-6.7 4.07-8.73 5.82-11.6 9.96 1.55 26.27 14.63 26.83-2.18.91-8.65 3.36-9.78 4.2-6.28 4.71-3.83 17.99-7.84 28.45-7.46-6.33-16.12-19-17.29-28.69-.46-3.78.15-9.73-.16-11.88.62-.24 1.19-1.7 1.62-2.59.27-.55.62-1.92.32-.32-.24 1.28-.72 2.67-.81 3.96s.15 2.53.16 3.8c.01 1.55-.26 3.79-.08 3.88 1.46-3.56 5.21-5.04 7.68-7.76A12.6 12.6 0 0 0 30.77 48c-2.4-1.44-5.75 1.69-7.76 3.15.9-1.31 1.8-2.65 2.59-4.04 3.32-5.89 2.75-7.38 4.69-12.61 1.15-3.11 2.51-5.66 5.01-7.92 1.47-1.33 2.88-2.32 4.85-2.75 2.3-.5 4.66-.22 6.95-.65 4.29-.81 11.59-6.35 1.94-5.17-.39.05-1.14.41-1.45 0 .47-.28.86-.66 1.13-.81 3.41-1.82 9.67-2.95 11.31-9.13-1.41-2.77-9.14 3.54-9.54 4.28h-.32c1-1.24 3.13-6.55 1.94-8.08-1.78-3.44-10.44-.93-13.74 2.67-4.23 4.62-4.8 11.31-4.36 17.21.01.17.33 1.03.32 1.13-.02.36-.04.36-.16.65-.17.39-3.05 2.9-4.04 7.43-.07-4.32 1.04-16.32-5.98-8.65-5.83 6.37-6.57 15.65-6.95 23.84-.08 1.66.06 3.35 0 5.01-.06 1.63-.14 11.33-.65 11.96-.3-1.27-.82-2.58-.97-3.88-.62-5.42 1.49-11.21-2.26-17.05-6.47-10.07-14.49-2.65-6.95 8.32 2.05 2.99 3.89 4.2 5.66 6.3 1.09 1.31 2.11 2.51 2.75 4.04.42 1.02.61 2 .81 3.07.13.67.51 2.44.48 2.91-1.28-1.43-1.31-4.55-2.59-6.3-1.91-3.78-8.05-7.26-8.73-5.58-.2 2.6 1.54 5.57 3.56 7.19 2.71 2.18 4.64 1.84 7.43 5.33.52.65 1.25 1.29 1.29 1.37.36.68.74 3.49 1.13 4.53 3.59 9.48 9.72 16.33 17.29 22.87-1.31 2.75-3.19 5.11-5.33 7.27-15.9-5.6-28.38-25.87-29.9-42.06-1.43-15.21 4.15-30.07 13.58-41.86C24.41 8.72 41.48.96 58.33.09c19.74-1.03 40.6 7.07 52.61 23.19 10.38 13.93 15.47 32.67 10.34 49.62-3.47 11.48-15.47 30.09-28.45 31.92" class="cls-1"/><path d="M30.93 56.98c-.25.55.23 2.02.57 2.1l1.86-.48c-.02.21.57 1.32.32 4.12-.08.95-.75 2.1-.48 2.99-.32.64-.67 2.06-.65 2.75-2.25.55-3.29 2.79-4.69 4.36-1.99-3.67-4.66-3.32-4.36 1.13-3.81-1.58-1.77-11.18 2.67-12.77l2.26 7.11c-.01-3.95-.76-8.52 1.94-11.8l.57.48ZM99.94 72.82c.08-4.79-3.28-3.62-4.69-.16-1.17-1.45-2.38-3.5-4.04-4.36.05-1.3-.5-2.55-1.29-3.56-.18-1.08-.3-5.21.16-5.9.12-.17.35.06.65-.24.3-.31 1.98-2.02 2.1-2.1.15-.1.3-.17.4-.32 3.05 3.96 1.7 8.02 1.54 12.69h.32c-.07-1.03 1.73-8.12 2.18-8.16 4.41 2.28 5.59 10.81 2.67 12.12Z" class="cls-13"/><path d="M35.46 75.89h-.16c-.14-2.14-2.67-5.1-2.75-7.43-.02-.69.33-2.1.65-2.75.99-2.01 3.88-3.47 5.17-.89 2.17 4.34-2.58 8.14-2.91 11.07M89.92 64.74c.79 1 1.34 2.25 1.29 3.56-.07 2.07-1.78 3.96-2.26 5.25-.35.93-.43 1.86-.57 2.83-.64-2.45-2.57-4.52-2.99-7.03-.61-3.65 1.38-8.6 4.53-4.61M27.86 72.82c1.39 2.57 1.36 5.57 1.54 8.4-2.31-2.19-5.66-3.63-5.9-7.27-.3-4.45 2.37-4.8 4.36-1.13M32.38 96.58c.31.3 1.88.36-.32 3.15-5.2 6.6-13.37-3.01-.65-3.31.36.15.56.22.97.16M21.39 25.79l-.24.16c-.55-2.66-.3-7.41-2.99-4.44-1.11 1.22-1.47 3.32-2.1 3.64-.96-7.84 7.75-12.01 7.43-4.77-.09 2.05-1.19 3.69-2.1 5.41" class="cls-8"/><path d="M21.39 25.79c-1.24 2.35-2.73 3.78-3.15 6.95.1-3.14-1.79-4.38-2.18-7.6.63-.32 1-2.41 2.1-3.64 2.69-2.97 2.44 1.79 2.99 4.44l.24-.16Z" class="cls-10"/><path d="M92.19 96.74c13.91-.87 3.71 10.89-2.1.81.47-.01 1.76-.58 2.1-.81M17.35 34.19c-.25 7.6-1.24 3.22-5.09 0-.83.19.78 5.65-1.54 3.23-1.55-1.62-2.05-6.53-.65-8.32 2.25-2.88 6.74 1.65 7.27 5.09Z" class="cls-8"/><path d="M17.35 34.19c.42 2.74-.78 7.78-1.05 10.83-1.28-2.94-4.3-4.67-5.58-7.6 2.32 2.42.71-3.04 1.54-3.23 3.86 3.22 4.84 7.6 5.09 0" class="cls-10"/><path d="M23.98 88.5c-1.8-.2-9.13-4.68-10.34-3.8l-.81 2.02c-3.43-2.51-8.36-8.74-.08-7.6 7.42 1.03 8.37 5.66 11.23 9.37Z" class="cls-8"/><path d="M23.98 88.5c.56.73 2.77 3.26 3.39 3.88l-.16.48c-.49-.37-.94-.8-1.45-1.13-4.08-2.67-8.34-1.65-12.93-5.01l.81-2.02c1.21-.88 8.54 3.6 10.34 3.8" class="cls-10"/><path d="M25.76 91.73c.51.34.97.76 1.45 1.13.08.06.41.59.48.65-4.78 6.94-13.68-3.24-1.94-1.78ZM116.11 72.5c-.86-1.56-7.83 3.2-10.18 4.04 1.02-2.98 1.64-6.49 4.44-8.4 3.12-2.13 10.08-2.14 5.74 4.36" class="cls-8"/><path d="M116.11 72.5c-2.57 3.84-7.62 4.68-11.23 7.27-.5.1.51-1.66 1.05-3.23 2.35-.84 9.33-5.6 10.18-4.04" class="cls-10"/><path d="M111.26 39.2c-.18.16-1.06 1.01-1.21.97-2.8-2.6-3.44-2.72-3.47-6.95 1.33-5.01 6.96-7.3 7.6-2.18.34 2.78-.81 6.26-2.91 8.16Z" class="cls-8"/><path d="M111.26 39.2c-1.32 1.96-3.45 3.16-4.36 5.41-.24-3.83-1.34-7.58-.32-11.39.03 4.23.68 4.35 3.47 6.95.15.04 1.03-.81 1.21-.97" class="cls-10"/><path d="M107.22 26.27c-.69.03-.4 1.27-.97.57.87-2.16-.33-3.93-1.78-5.41-1.31-1.34-2.19-2.28-3.88-1.45.41-7.31 8.89-1.46 6.63 6.3Z" class="cls-8"/><path d="M107.22 26.27c-.6 2.05-2.37 3.21-1.86 6.95-.28-2.4-1.67-4.34-2.67-6.47 1.43.53.24-3.38.81-4.77.37-.9 1.06.08.97-.57 1.45 1.49 2.65 3.25 1.78 5.41.57.71.28-.54.97-.57Z" class="cls-10"/><path d="M104.47 21.42c.09.65-.6-.33-.97.57-.57 1.39.62 5.3-.81 4.77-1.24-2.65-2.29-3.41-2.1-6.79 1.69-.82 2.57.12 3.88 1.45" class="cls-8"/><path d="M35.46 75.89c-.12 1.09.08 2.61 0 3.8-.17 2.45-1.7 6.85.89 2.34.34.12-1.7 2.98-.89 7.03h-.32c-.95-2.69-2.82-5.06-3.88-7.68.95 1.16 2.8 4.67 3.07 4.12.53-1.06-2.33-11.7.4-6.06.25 0 .59-3.19.57-3.56h.16Z" class="cls-21"/><path d="M112.55 84.78c-2.19-1.36-5.57.69-7.76 1.62-2.08.88-4.09 1.96-6.14 2.91 1.13-1.51 2.62-5.04 4.93-6.95 4.47-3.71 17.29-6.25 8.97 2.42" class="cls-8"/><path d="M107.54 88.33c-4.03 1.84-6.83 1.52-10.02 3.72h-.16c.35-.39-.06-.51-.32-.81.48-.56 1.2-1.38 1.62-1.94 2.05-.95 4.06-2.03 6.14-2.91-.14.53.69.14 1.13.73.35.46-.18 1.65 1.62 1.21Z" class="cls-10"/><path d="M112.55 84.78c-1.71 1.78-2.75 2.52-5.01 3.56-1.8.44-1.27-.75-1.62-1.21-.44-.59-1.27-.2-1.13-.73 2.19-.93 5.57-2.98 7.76-1.62" class="cls-10"/><path d="M95.58 93.83c.45-.42 1.63-1.27 1.78-1.78h.16c9.53-1.23 4.5 4.65-1.94 1.78" class="cls-8"/><path d="M102.21 53.75c1.42 3.67.68 7.66 1.37 11.48-1.46-3.85-6-4.87-8.16-8.08.42-.12.52.2.81.32 2.38 1.02 4.71 2.15 6.55 4.04.35-.05.24-1.24.24-1.62 0-1.17-.15-2.63-.32-3.8-.11-.72-1.04-2.61-.48-2.34Z" class="cls-10"/><path d="m88.55 77.67.32 4.2c.8-1.61 1.92-4.03 1.86-2.83-1.11 3.17-2.41 6.27-2.83 9.62.44-4.13-.67-5.1-1.05-6.71-.93-3.94-.24-2.91 1.21.4l.48-4.69Z" class="cls-21"/><path d="M15.41 71.36c2.85 8.47-.77.61-6.55-.32-.44.53-1.16.91-1.86.65-3.15-7.03 5.41-6.03 8.4-.32Z" class="cls-8"/><path d="M15.41 71.36c1.33 2.54 1.82 5.57 2.83 8.24-3.89-2.96-9.01-2.96-11.23-7.92.7.26 1.42-.12 1.86-.65 5.77.94 9.4 8.79 6.55.32ZM16.06 69.26c-.02.5-.38.19-.32.65-2.8-3.5-4.73-3.15-7.43-5.33.66-.46 3.95.88 5.74 1.29.46-.11-.41-2.6-.57-2.91 1.28 1.75 1.3 4.87 2.59 6.3Z" class="cls-10"/><path d="m33.35 58.6-1.86.48c-.34-.08-.82-1.55-.57-2.1.1-.21 2.85-2.83 3.31-3.23.53 2.98-.86 4.6-.89 4.85Z" class="cls-23"/><path d="M30.77 16.73c-1.33-.42-4.18 1.17-4.69-.16 1.82-8.58 7.78-10.46 6.63-3.47-.25 1.48-1.01 2.55-1.94 3.64Z" class="cls-8"/><path d="M30.77 16.73c-1.66 1.93-4.1 3.03-5.58 5.17.78-1.68.52-3.6.89-5.33.51 1.33 3.35-.25 4.69.16" class="cls-10"/><path d="M92.83 56.49c-.12.08-1.8 1.79-2.1 2.1l-1.29-2.18c-.94-6.78.95-1.71 3.39.08" class="cls-23"/><path d="m85.72 29.66.4 2.1c-2.63.2-3.55-.14-5.74-1.45-.32-1.1-.47-1.66.57-2.59.45 1.18 2.96 1.57 3.07 0 .6.62 1.27 1.17 1.7 1.94" class="cls-27"/><path d="M85.88 34.19c-2.05-1.09-4.54-.57-5.5-3.88 2.19 1.32 3.1 1.65 5.74 1.45l-.4-2.1c1.48 2.69-.08 3.43.16 4.53" class="cls-8"/><path d="M88.95 25.95c.15.43 3.34 4.06 4.04 7.92.04.2.45.59-.16 1.13-.91-2.65-2.71-5.91-4.69-7.92.18-.53.22-1.12.81-1.13M35.29 26.59c-2.5 2.26-3.86 4.81-5.01 7.92-.72 0-.31-.46-.16-1.13.99-4.53 3.87-7.04 4.04-7.43l1.13.65Z" class="cls-7"/><path d="M97.68 12.86c.31 1.52.73 2.95.4 4.53-.32-.93-5.25-5.77-5.66-5.82-.44-.06-.24.66-.89.32.02-1.08-.02-2.36.89-3.07 2.16.22 4.35 2.08 5.25 4.04Z" class="cls-8"/><path d="M97.68 12.86c1.13 2.43.85 4.67.65 7.27-.64.07-.03-.64-.57-1.29-.18-.22-4.76-3.3-4.77-2.1-1.27-1.74-1.5-2.68-1.45-4.85.65.34.45-.38.89-.32.4.05 5.34 4.89 5.66 5.82.33-1.57-.1-3.01-.4-4.53Z" class="cls-8"/><path d="M98.33 20.13c-.02.28.09 1.16-.08 1.29-1.71-1.62-3.85-2.77-5.25-4.69.01-1.19 4.59 1.88 4.77 2.1.54.65-.07 1.36.57 1.29Z" class="cls-10"/><path d="M99.94 72.82c-.03 1.89-.68 2.42-1.78 3.72-1.02-.92-2.29.58-3.72.32.1-1.17.38-3.14.81-4.2 1.4-3.46 4.77-4.62 4.69.16" class="cls-8"/><path d="M98.17 76.54c-1.23 1.45-2.44 2.17-3.8 3.39-.2-.16.04-2.64.08-3.07 1.43.26 2.69-1.24 3.72-.32" class="cls-10"/><path d="M97.36 92.05c-.15.5-1.33 1.36-1.78 1.78-.41.38-3.21 2.79-3.39 2.91-.34.22-1.63.79-2.1.81 2.44-1.95 4.92-3.91 6.95-6.3.26.29.68.41.32.81Z" style="stroke-width:0;fill:#504423"/><path d="M36.59 29.83c1.98.42 6.19 1.94 5.33-.81.05 0 .14-.58.4-.48 1.03 4.34-1.23 4.46-4.69 5.17-.2-.04-1.43-3.07-1.05-3.88Z" class="cls-8"/><path d="M41.92 29.02c.85 2.74-3.36 1.22-5.33.81.43-.91 2.05-.68 2.67-1.13.4-.3.4-.97.48-.97.14 0-.06 1.59 2.18 1.29" style="stroke-width:0;fill:#769849"/><path d="M36.83 34.03c-3.12 2.93-3.04 6.79-5.5 7.6-.42-.22 4.73-7.37 5.5-7.6" class="cls-27"/><path d="M32.38 96.58c-.41.05-.61-.01-.97-.16-.74-.31-2.89-2.26-3.72-2.91-.08-.06-.41-.59-.48-.65l.16-.48c1.53 1.51 3.45 2.71 5.01 4.2" class="cls-7"/><path d="M91.62 42.76c.49 1.7 3.21 2.53 2.1 4.36-.43.11-2.52-4.26-2.1-4.36M89.44 38.72s-.06.24.48.16c1.22 1.54 1.6.61 1.54 3.72-.85-1.88-3.49-4.75-2.02-3.88" class="cls-27"/><path d="m31.33 42.92-1.37 3.31c-2.78 1.34-.67-.9 1.37-3.31" class="cls-8"/><path d="M10.89 56.82c.45.41 1.1 1.18 1.62 1.62l-.48.81c-1.76-2.1-3.6-3.31-5.66-6.3 1.4.8 3.11 2.59 4.53 3.88Z" class="cls-22"/><path d="M16.55 65.55c-.71.51-.1-.91-.89-.65l-.08 1.45c-.2-1.07-.38-2.05-.81-3.07.87-.38.69-.94.65-1.62h.16c.15 1.3.67 2.61.97 3.88Z" style="stroke-width:0;fill:#4f321f"/><path d="m92.59 80.9-2.42 4.36c.61-1.54 1.5-3.04 2.42-4.36" class="cls-16"/><path d="M87.82 36.13c-.36-.35-1.86-1.57-1.94-1.94.97.51 1.32 1.1 1.94 1.94M89.92 38.88c-.55.07-.46-.15-.48-.16.24 0-.19-.7-.32-.97.65.71.67.96.81 1.13Z" class="cls-24"/><path d="m93.24 79.61.08.08c-.53 1.55-1.03 1.14-.08-.08" class="cls-16"/><path d="M87.82 36.13c.11.11.41.14.48.24.52.7.23.72-.48-.24M89.12 37.75s-.52-.19-.24-.48c.33.22.22.46.24.48" class="cls-24"/><path d="M31.25 81.38s-.53-.19-.24-.48c.33.22.23.46.24.48" class="cls-21"/><path d="M47.09 83.32c.94 4.91 3.1 11.8 3.23 13.33.44 5.13-1.15 6.51-2.75 10.75l-5.33-5.5c1.4-3.28 3.32-15.21 4.53-19.64.14-.01.28.81.32 1.05ZM80.87 101.91l-5.01 5.17c-1.69-4.3-3.1-5.96-2.59-11.07.11-1.09 2.49-9.11 3.39-13.17.04-.17-.08-.57.08-.65.99 4.24 2.78 16.66 4.12 19.72Z" class="cls-1"/><path d="M47.58 107.41c-.04.11-.06.55-.16.81l-5.66-5.33c.12-.22.41-.79.48-.97l5.33 5.5Z" class="cls-7"/><path d="m81.52 102.88-5.17 4.85s-.11.31-.48-.65l5.01-5.17c.02.05.36.46.65.97Z" class="cls-25"/><path d="M58.08 32.9c.53 1.07 1.13 1.13 1.13 1.21 0 .21-2.29.3-3.56 2.1-.17.24-1.89 4.13-1.94 4.36-.35 1.63-.11 4.03 0 5.74-.28.05-.78.92-.81 1.05-.53 2.72 1.54 7.01 1.45 4.12.52-.47.71 1.34 1.29 2.34.49.85 2.36 2.76 2.42 3.31.01.1-.3 1.51-.32 1.94-.07 1.28-.23 2.46-.48 3.72-13.89-7.47-14.85-23.63.81-29.9ZM66.16 62.15c-.09-1.09-.52-5.38-.48-5.66 0-.05-.01-.11 0-.16 2.07-.63 2.51-2.45 3.07-3.39.1-.18.12-.24.16-.32.29-.55 2.88-3.45.81-5.98.23-2.12.59-4.23.16-6.38-1.86-3.23-1.72-5.1-5.82-6.14-.12-.27 1.4-.79 1.62-1.05 14.57 6.73 15.06 22.58.48 29.09Z" class="cls-1"/><path d="M54.2 49.38c.05.67.14 1.44.16 2.1.08 2.89-1.98-1.4-1.45-4.12.02-.13.52-1 .81-1.05 0 .16.34 1.23.48 3.07" class="cls-20"/><path d="M15.58 61.67h-.16c0-.08-.26-.5-.32-.97-.85-6.07-4.42-9.81-7.68-14.87.54 1.43 3.73 9.87 3.8 10.42s-.25.3-.32.57c-1.42-1.28-3.13-3.08-4.53-3.88-7.54-10.98.48-18.4 6.95-8.32 3.75 5.84 1.65 11.63 2.26 17.05" class="cls-8"/><path d="M15.09 60.7c.07.47.32.89.32.97.04.68.23 1.24-.65 1.62-.64-1.53-1.65-2.74-2.75-4.04l.48-.81c.35.3 1.59.85 2.59 2.26Z" class="cls-17"/><path d="M15.09 60.7c-1-1.42-2.23-1.96-2.59-2.26-.52-.44-1.17-1.21-1.62-1.62.08-.27.39-.02.32-.57s-3.26-8.99-3.8-10.42c3.26 5.06 6.82 8.8 7.68 14.87Z" class="cls-10"/><path d="M99.62 50.68c.77 1.07 1.83 1.91 2.59 2.91v.16c-.56-.26.38 1.62.48 2.34.17 1.17.32 2.62.32 3.8-1.22.06-.93-.84-1.45-1.54-2.18-2.88-2.2-2.51-5.33-.89-.29-.12-.39-.44-.81-.32-1.88-2.8-2.31-6.23-3.07-9.46 2.91-.58 4.99 1.72 7.27 2.99Z" class="cls-8"/><path d="M103.02 59.89c0 .37.11 1.57-.24 1.62-1.83-1.89-4.17-3.02-6.55-4.04 3.14-1.62 3.16-1.99 5.33.89.53.7.24 1.6 1.45 1.54Z" class="cls-10"/><path d="M56.95 64.41c.51.07 4.19 2.06 9.37.32.24 0 .13-.18.16-.32 1.26-.06 1.72 0 2.91.32.69.19 8.67 3.28 9.13 3.56 7.55 4.5 5.15 20.48 8.81 29.25.05.13.02.43.48 1.29.97 1.8 3.52 4.46 5.01 5.98 2.36 2.41 4.6 5.3 8.32 5.01.25-.02 1.97-.5 2.18-.65l2.18 3.39 2.99-.65c-.61 2.04-4.58 2.49-6.3 2.51 1.46.76 2.76 1.98 3.39 3.47-2.32 6.53-22.9 10.92-29.9 12.45-.04-.02-.49-.02-.81-.16-1.35-.61-7.51-3.99-8.89-4.85-.03-.02-.27.08-.48-.24 3.28-1.48 6.43-4.97 9.21-6.87 6.29-4.3 16.94-5.86 24.32-4.2-.75-1.85-4.18-2.15-5.25-2.59-4.7-1.92-9.68-3.93-12.28-8.57-.29-.51-.62-.92-.65-.97-1.34-3.06-3.13-15.48-4.12-19.72-.17.08-.04.48-.08.65-2.56 4.11-6.36 4.87-10.91 5.17-5.74.38-15.11.44-18.67-4.69-.05-.24-.18-1.06-.32-1.05-1.21 4.42-3.12 16.36-4.53 19.64-.08.18-.37.75-.48.97-2.19 4.16-6.51 6.51-10.67 8.24-10.22 3.78-3.67 1.71 3.31 2.42 1.73.18 7.66 1.43 9.46 1.94.68.19 1.44.42 2.1.65 7.24 2.44 12.31 8.81 19.88 10.34.96.27.36 1.85-.16 2.75-1.17-.18-1.76-.52-3.15-.48-1.17.03-4.57.87-5.9 1.29-11.16.15-31.3-3.67-39.11-11.96.39-1.45 1.35-2.77 2.59-3.64-.14-.22-3.01.22-4.69-1.94.03-.11 1.12.21 1.94.08 1.89-.3 1.07-1.51 2.42-3.56.16.15 2.67.78 2.99.81 3.42.28 5.12-1.62 7.35-3.88 2.15-2.16 4.02-4.52 5.33-7.27.07-.14.3-.4.65-1.29 4.01-10.45 1.56-23.74 7.84-28.45 1.13-.85 7.59-3.29 9.78-4.2.02 0-.06-.27.08-.32.15-.05 2.83-.05 3.15 0Z" style="stroke-width:0;fill:#356635"/><path d="M56.63 130.03c-.17.05-2.32 1.19-3.15 1.45-1.47.48-9.1 2.67-9.54 2.91-.13.07-.08.21-.08.32-1.33-.02-4.01-.31-4.61-.16-.19.05-1.23 1.44-3.47 1.29-3.21-.21-1.16-1.48.4-2.26-1.82-.17-3.51-.6-5.25-1.13-3.35-1.02-8.34-3.19-10.83-5.66-2.53-2.51-3.53-5.25-2.59-8.73 7.81 8.29 27.95 12.11 39.11 11.96ZM103.5 126.48c-3.4 3.66-11.26 6.64-16.16 7.43-4.84-.96-7.1-1.6-11.64-3.56 7-1.53 27.58-5.91 29.9-12.45 1.38 3.26.19 6.1-2.1 8.57ZM76.67 82.84c-.91 4.07-3.29 12.08-3.39 13.17-.51 5.11.89 6.77 2.59 11.07.37.95.47.61.48.65.38.9 2.32 6.95 2.67 7.11.69.33 11-3.71 14.79-3.39 1.07.44 4.5.74 5.25 2.59-7.39-1.65-18.03-.1-24.32 4.2l-.08-.32c-.48.02-5.79 4.12-7.92 4.36-3.78.44-18.25-6.58-20.53-6.47-.03 0-.26.22-.24.32-.67-.22-1.42-.46-2.1-.65 1.19-.39.55-.32.65-.48.93-1.58 2.16-4.89 2.91-6.79.1-.26.12-.7.16-.81 1.6-4.23 3.19-5.62 2.75-10.75-.13-1.53-2.29-8.42-3.23-13.33 3.56 5.13 12.92 5.07 18.67 4.69 4.55-.3 8.35-1.07 10.91-5.17Z" class="cls-6"/><path d="M74.73 118.24c-2.78 1.9-5.93 5.39-9.21 6.87.22.32.46.22.48.24l-.16 1.13c-7.57-1.53-12.64-7.9-19.88-10.34-.02-.1.21-.32.24-.32 2.28-.11 16.74 6.9 20.53 6.47 2.13-.25 7.44-4.34 7.92-4.36l.08.32ZM31.09 111.12c4.62.68 9.05 2.27 13.41 3.88-.1.17.55.09-.65.48-1.79-.51-7.73-1.76-9.46-1.94-6.98-.72-13.54 1.35-3.31-2.42ZM65.68 129.23c3.05.47 6.07 1.62 9.21.97.32.14.77.14.81.16 4.53 1.95 6.79 2.59 11.64 3.56 1.18.24 2.4.39 3.56.73 0 .24-2.87.99-3.39 1.05-3.35.39-2.46-1.12-3.15-1.29-.57-.14-9.91.77-11.64.81-9.64.21-19.22-.34-28.85-.48 0-.11-.05-.25.08-.32.44-.24 8.06-2.43 9.54-2.91.83-.27 2.99-1.4 3.15-1.45 1.33-.42 4.73-1.26 5.9-1.29 1.39-.03 1.98.3 3.15.48Z" class="cls-5"/><path d="M74.89 130.2c-3.14.65-6.16-.5-9.21-.97.53-.9 1.12-2.47.16-2.75l.16-1.13c1.38.86 7.54 4.24 8.89 4.85M66.33 64.74c-5.19 1.74-8.86-.25-9.37-.32.2-.52.22-1.08.32-1.62.25-1.26.41-2.43.48-3.72l.57-.81c.41.34 3.19 2.41 3.39 2.42.24.01 3.65-1.97 3.88-2.75-.01 2.31.27 4.54.73 6.79Z" class="cls-6"/><path d="M66.16 62.15c.07.81.41 1.83.32 2.26-.03.14.08.33-.16.32-.46-2.25-.74-4.48-.73-6.79-.23.77-3.64 2.76-3.88 2.75-.21-.01-2.98-2.09-3.39-2.42l-.57.81c.02-.42.34-1.84.32-1.94 3.13 1.54 4.85 1.6 7.6-.65-.03.28.39 4.57.48 5.66Z" class="cls-5"/><path d="M19.78 109.02c-1.36 2.05-.54 3.25-2.42 3.56.12-.65-1.44.02-2.42-.89.98-1.12-1.25-3.25 1.37-4.93 2.87-.36 3.3 2.11 3.47 2.26" class="cls-6"/><path d="m15.98 107.24 1.78.16c2.23 2.7 1.22 1.51-.65.16-.82 3.65-2.47.13-1.13-.32" style="stroke-width:0;fill:#a1bfa3"/><path d="M63.9 26.43c-.01.17-.36.95-.32 1.05.11.32 1.07.3 1.21.4 1.67 1.22 1.76 4.13.89 5.17-.22.26-1.73.78-1.62 1.05 4.1 1.05 3.96 2.91 5.82 6.14.43 2.15.07 4.27-.16 6.38-.03.26-.38 1.13-.48 1.78-1.08-4.69-3.87-7.26-7.84-9.7-3.28 1.98-6.25 5.06-6.87 8.97-.13.84.28 1.82-.32 1.7-.14-1.84-.47-2.92-.48-3.07-.11-1.71-.35-4.11 0-5.74.05-.23 1.77-4.12 1.94-4.36 1.26-1.81 3.55-1.89 3.56-2.1 0-.08-.6-.14-1.13-1.21-2.01-4.05 2.8-4.76 2.91-5.09.04-.12-1-.48-1.29-1.21-1.23-3.11 4.58-5.32 4.2-.16Z" style="stroke-width:0;fill:#311612"/><path d="M69.24 48.41c-.22 1.39-.21 2.81-.32 4.2-.04.08-.06.15-.16.32l-.32-2.02c-.45 2.86-2.69 5.11-2.75 5.41-.01.05 0 .11 0 .16-2.75 2.25-4.47 2.19-7.6.65-.07-.55-1.93-2.46-2.42-3.31-.58-1.01-.77-2.81-1.29-2.34-.02-.66-.11-1.43-.16-2.1.61.12.19-.85.32-1.7.62-3.91 3.59-6.99 6.87-8.97 3.97 2.43 6.76 5.01 7.84 9.7Z" style="stroke-width:0;fill:#3c7539"/><path d="M68.75 52.94c-.56.95-1 2.77-3.07 3.39.06-.3 2.3-2.56 2.75-5.41z" style="stroke-width:0;fill:#cde1d9"/></g></svg>